{
  "accessors": [
    {
      "bufferView": 2,
      "componentType": 5126,
      "count": 6159,
      "max": [
        0.53588265180587769,
        0.4972078800201416,
        2.0071713924407959
      ],
      "min": [
        -0.53594881296157837,
        -0.5,
        0.93464165925979614
      ],
      "type": "VEC3"
    },
    {
      "bufferView": 2,
      "byteOffset": 73908,
      "componentType": 5126,
      "count": 6159,
      "max": [
        1,
        1,
        1
      ],
      "min": [
        -1,
        -1,
        -1
      ],
      "type": "VEC3"
    },
    {
      "bufferView": 3,
      "componentType": 5126,
      "count": 6159,
      "max": [
        1,
        0.99890232086181641,
        1,
        1
      ],
      "min": [
        -0.99999988079071045,
        -0.9974207878112793,
        -1,
        -1
      ],
      "type": "VEC4"
    },
    {
      "bufferView": 1,
      "componentType": 5126,
      "count": 6159,
      "max": [
        0.98273539543151855,
        0.96264064311981201
      ],
      "min": [
        0.013790756464004517,
        -0.0014731138944625854
      ],
      "type": "VEC2"
    },
    {
      "bufferView": 1,
      "byteOffset": 49272,
      "componentType": 5126,
      "count": 6159,
      "max": [
        0.98273539543151855,
        0.96264064311981201
      ],
      "min": [
        0.013790756464004517,
        -0.0014731138944625854
      ],
      "type": "VEC2"
    },
    {
      "bufferView": 0,
      "componentType": 5125,
      "count": 35136,
      "max": [
        6158
      ],
      "min": [
        0
      ],
      "type": "SCALAR"
    },
    {
      "bufferView": 2,
      "byteOffset": 147816,
      "componentType": 5126,
      "count": 164,
      "max": [
        0.4318840503692627,
        -0.48818826675415039,
        1.8593599796295166
      ],
      "min": [
        -0.42515981197357178,
        -0.51936924457550049,
        1.0720808506011963
      ],
      "type": "VEC3"
    },
    {
      "bufferView": 2,
      "byteOffset": 149784,
      "componentType": 5126,
      "count": 164,
      "max": [
        1,
        0,
        1
      ],
      "min": [
        -1,
        -1,
        -1
      ],
      "type": "VEC3"
    },
    {
      "bufferView": 3,
      "byteOffset": 98544,
      "componentType": 5126,
      "count": 164,
      "max": [
        1,
        1,
        0.011165179312229156,
        1
      ],
      "min": [
        -0.0013041665079072118,
        -1.3937199838665038e-08,
        -0.011574228294193745,
        1
      ],
      "type": "VEC4"
    },
    {
      "bufferView": 1,
      "byteOffset": 98544,
      "componentType": 5126,
      "count": 164,
      "max": [
        0.24958592653274536,
        0.6950337290763855
      ],
      "min": [
        0.040650740265846252,
        0.13166910409927368
      ],
      "type": "VEC2"
    },
    {
      "bufferView": 0,
      "byteOffset": 140544,
      "componentType": 5125,
      "count": 432,
      "max": [
        163
      ],
      "min": [
        0
      ],
      "type": "SCALAR"
    }
  ],
  "asset": {
    "extras": {
      "author": "yryabchenko (https://sketchfab.com/yryabchenko)",
      "license": "CC-BY-4.0 (http://creativecommons.org/licenses/by/4.0/)",
      "source": "https://sketchfab.com/models/022f2092ded7436ca793f1948d7db12f",
      "title": "Ottoman"
    },
    "generator": "Sketchfab-3.39.2",
    "version": "2.0"
  },
  "bufferViews": [
    {
      "buffer": 0,
      "byteLength": 142272,
      "byteOffset": 0,
      "name": "floatBufferViews",
      "target": 34963
    },
    {
      "buffer": 0,
      "byteLength": 99856,
      "byteOffset": 142272,
      "byteStride": 8,
      "name": "floatBufferViews",
      "target": 34962
    },
    {
      "buffer": 0,
      "byteLength": 151752,
      "byteOffset": 242128,
      "byteStride": 12,
      "name": "floatBufferViews",
      "target": 34962
    },
    {
      "buffer": 0,
      "byteLength": 101168,
      "byteOffset": 393880,
      "byteStride": 16,
      "name": "floatBufferViews",
      "target": 34962
    }
  ],
  "buffers": [
    {
      "byteLength": 495048,
      "uri": "scene.bin"
    }
  ],
  "images": [
    {
      "uri": "textures/blinn2_baseColor.png"
    },
    {
      "uri": "textures/blinn1_normal.png"
    },
    {
      "uri": "textures/blinn1_baseColor.png"
    }
  ],
  "materials": [
    {
      "doubleSided": true,
      "emissiveFactor": [
        0,
        0,
        0
      ],
      "name": "blinn1",
      "normalTexture": {
        "index": 1,
        "scale": 1,
        "texCoord": 0
      },
      "pbrMetallicRoughness": {
        "baseColorFactor": [
          1,
          1,
          1,
          1
        ],
        "baseColorTexture": {
          "index": 2,
          "texCoord": 0
        },
        "metallicFactor": 0,
        "roughnessFactor": 0.79191042749999996
      }
    },
    {
      "doubleSided": true,
      "emissiveFactor": [
        0,
        0,
        0
      ],
      "name": "blinn2",
      "pbrMetallicRoughness": {
        "baseColorFactor": [
          1,
          1,
          1,
          1
        ],
        "baseColorTexture": {
          "index": 0,
          "texCoord": 0
        },
        "metallicFactor": 0,
        "roughnessFactor": 0.98575834849999999
      }
    }
  ],
  "meshes": [
    {
      "name": "polySurface1_blinn1_0",
      "primitives": [
        {
          "attributes": {
            "NORMAL": 1,
            "POSITION": 0,
            "TANGENT": 2,
            "TEXCOORD_0": 3,
            "TEXCOORD_1": 4
          },
          "indices": 5,
          "material": 0,
          "mode": 4
        }
      ]
    },
    {
      "name": "polySurface1_blinn2_0",
      "primitives": [
        {
          "attributes": {
            "NORMAL": 7,
            "POSITION": 6,
            "TANGENT": 8,
            "TEXCOORD_0": 9
          },
          "indices": 10,
          "material": 1,
          "mode": 4
        }
      ]
    }
  ],
  "nodes": [
    {
      "children": [
        1
      ],
      "name": "RootNode (gltf orientation matrix)",
      "rotation": [
        -0.70710678118654746,
        -0,
        -0,
        0.70710678118654757
      ]
    },
    {
      "children": [
        2
      ],
      "name": "RootNode (model correction matrix)"
    },
    {
      "children": [
        3
      ],
      "matrix": [
        1,
        0,
        0,
        0,
        0,
        0,
        1,
        0,
        0,
        -1,
        0,
        0,
        0,
        0,
        0,
        1
      ],
      "name": "ef9a66b5bc0546a3b9a447981091ac6b.fbx"
    },
    {
      "children": [
        4
      ],
      "name": "RootNode"
    },
    {
      "children": [
        5,
        6
      ],
      "name": "polySurface1"
    },
    {
      "mesh": 0,
      "name": "polySurface1_blinn1_0"
    },
    {
      "mesh": 1,
      "name": "polySurface1_blinn2_0"
    }
  ],
  "samplers": [
    {
      "magFilter": 9729,
      "minFilter": 9987,
      "wrapS": 10497,
      "wrapT": 10497
    }
  ],
  "scene": 0,
  "scenes": [
    {
      "name": "OSG_Scene",
      "nodes": [
        0
      ]
    }
  ],
  "textures": [
    {
      "sampler": 0,
      "source": 0
    },
    {
      "sampler": 0,
      "source": 1
    },
    {
      "sampler": 0,
      "source": 2
    }
  ]
}

