{
  "accessors": [
    {
      "bufferView": 2,
      "componentType": 5126,
      "count": 4,
      "max": [
        167.02890014648438,
        167.02890014648438,
        0
      ],
      "min": [
        -167.02890014648438,
        -167.02890014648438,
        0
      ],
      "type": "VEC3"
    },
    {
      "bufferView": 2,
      "byteOffset": 48,
      "componentType": 5126,
      "count": 4,
      "max": [
        0,
        0,
        1
      ],
      "min": [
        0,
        0,
        1
      ],
      "type": "VEC3"
    },
    {
      "bufferView": 3,
      "componentType": 5126,
      "count": 4,
      "max": [
        1,
        2.3841863594498136e-07,
        0,
        1
      ],
      "min": [
        1,
        1.8270841906087298e-07,
        0,
        1
      ],
      "type": "VEC4"
    },
    {
      "bufferView": 1,
      "componentType": 5126,
      "count": 4,
      "max": [
        1,
        1
      ],
      "min": [
        2.9802322387695312e-08,
        2.9802322387695312e-08
      ],
      "type": "VEC2"
    },
    {
      "bufferView": 0,
      "componentType": 5125,
      "count": 6,
      "max": [
        3
      ],
      "min": [
        0
      ],
      "type": "SCALAR"
    },
    {
      "bufferView": 2,
      "byteOffset": 96,
      "componentType": 5126,
      "count": 660,
      "max": [
        4.2708086967468262,
        15.415866851806641,
        6.8270940780639648
      ],
      "min": [
        -11.251289367675781,
        -15.415868759155273,
        -8.6950035095214844
      ],
      "type": "VEC3"
    },
    {
      "bufferView": 2,
      "byteOffset": 8016,
      "componentType": 5126,
      "count": 660,
      "max": [
        0.9999733567237854,
        1,
        0.9999733567237854
      ],
      "min": [
        -0.99997341632843018,
        -1,
        -0.9999733567237854
      ],
      "type": "VEC3"
    },
    {
      "bufferView": 3,
      "byteOffset": 64,
      "componentType": 5126,
      "count": 660,
      "max": [
        0.95323479175567627,
        0.99997973442077637,
        0.99450153112411499,
        1
      ],
      "min": [
        -0.95504111051559448,
        -2.2621837558745028e-07,
        -0.95336586236953735,
        -1
      ],
      "type": "VEC4"
    },
    {
      "bufferView": 1,
      "byteOffset": 32,
      "componentType": 5126,
      "count": 660,
      "max": [
        0.98323237895965576,
        0.84252697229385376
      ],
      "min": [
        0.35236337780952454,
        0.021517768502235413
      ],
      "type": "VEC2"
    },
    {
      "bufferView": 1,
      "byteOffset": 5312,
      "componentType": 5126,
      "count": 660,
      "max": [
        0.98972707986831665,
        0.96158158779144287
      ],
      "min": [
        0.01981256902217865,
        0.027154013514518738
      ],
      "type": "VEC2"
    },
    {
      "bufferView": 0,
      "byteOffset": 24,
      "componentType": 5125,
      "count": 2688,
      "max": [
        659
      ],
      "min": [
        0
      ],
      "type": "SCALAR"
    },
    {
      "bufferView": 2,
      "byteOffset": 15936,
      "componentType": 5126,
      "count": 1065,
      "max": [
        13.701898574829102,
        123.14825439453125,
        18.645158767700195
      ],
      "min": [
        -20.390460968017578,
        15.415866851806641,
        -11.03752613067627
      ],
      "type": "VEC3"
    },
    {
      "bufferView": 2,
      "byteOffset": 28716,
      "componentType": 5126,
      "count": 1065,
      "max": [
        1,
        1,
        1
      ],
      "min": [
        -1,
        -1,
        -1
      ],
      "type": "VEC3"
    },
    {
      "bufferView": 3,
      "byteOffset": 10624,
      "componentType": 5126,
      "count": 1065,
      "max": [
        1,
        1,
        1,
        1
      ],
      "min": [
        -1,
        -1,
        -1,
        -1
      ],
      "type": "VEC4"
    },
    {
      "bufferView": 1,
      "byteOffset": 10592,
      "componentType": 5126,
      "count": 1065,
      "max": [
        0.98323237895965576,
        0.99000144004821777
      ],
      "min": [
        0.26106175780296326,
        0.0076955296099185944
      ],
      "type": "VEC2"
    },
    {
      "bufferView": 1,
      "byteOffset": 19112,
      "componentType": 5126,
      "count": 1065,
      "max": [
        0.98323237895965576,
        0.99000144004821777
      ],
      "min": [
        0.26106175780296326,
        0.0076955296099185944
      ],
      "type": "VEC2"
    },
    {
      "bufferView": 0,
      "byteOffset": 10776,
      "componentType": 5125,
      "count": 3540,
      "max": [
        1064
      ],
      "min": [
        0
      ],
      "type": "SCALAR"
    },
    {
      "bufferView": 2,
      "byteOffset": 41496,
      "componentType": 5126,
      "count": 385,
      "max": [
        -1.1559627056121826,
        127.61135864257812,
        1.3641493320465088
      ],
      "min": [
        -5.8734025955200195,
        122.86983489990234,
        -3.353290319442749
      ],
      "type": "VEC3"
    },
    {
      "bufferView": 2,
      "byteOffset": 46116,
      "componentType": 5126,
      "count": 385,
      "max": [
        1,
        1,
        1
      ],
      "min": [
        -1,
        -0.66335326433181763,
        -1
      ],
      "type": "VEC3"
    },
    {
      "bufferView": 3,
      "byteOffset": 27664,
      "componentType": 5126,
      "count": 385,
      "max": [
        0.65958350896835327,
        1,
        0.99999052286148071,
        1
      ],
      "min": [
        -0.6593925952911377,
        0,
        -0.99999010562896729,
        -1
      ],
      "type": "VEC4"
    },
    {
      "bufferView": 1,
      "byteOffset": 27632,
      "componentType": 5126,
      "count": 385,
      "max": [
        0.49288579821586609,
        0.26249474287033081
      ],
      "min": [
        0.40363237261772156,
        0.17369440197944641
      ],
      "type": "VEC2"
    },
    {
      "bufferView": 1,
      "byteOffset": 30712,
      "componentType": 5126,
      "count": 385,
      "max": [
        0.49288579821586609,
        0.26249474287033081
      ],
      "min": [
        0.40363237261772156,
        0.17369440197944641
      ],
      "type": "VEC2"
    },
    {
      "bufferView": 0,
      "byteOffset": 24936,
      "componentType": 5125,
      "count": 2256,
      "max": [
        384
      ],
      "min": [
        0
      ],
      "type": "SCALAR"
    },
    {
      "bufferView": 2,
      "byteOffset": 50736,
      "componentType": 5126,
      "count": 1326,
      "max": [
        16.690383911132812,
        144.91450500488281,
        18.969841003417969
      ],
      "min": [
        -23.309619903564453,
        114.91450500488281,
        -20.951236724853516
      ],
      "type": "VEC3"
    },
    {
      "bufferView": 2,
      "byteOffset": 66648,
      "componentType": 5126,
      "count": 1326,
      "max": [
        1,
        1,
        0.99802696704864502
      ],
      "min": [
        -1,
        -1,
        -0.99802690744400024
      ],
      "type": "VEC3"
    },
    {
      "bufferView": 3,
      "byteOffset": 33824,
      "componentType": 5126,
      "count": 1326,
      "max": [
        0.99913209676742554,
        1,
        0.99978101253509521,
        1
      ],
      "min": [
        -0.99912655353546143,
        -1,
        -0.99978440999984741,
        1
      ],
      "type": "VEC4"
    },
    {
      "bufferView": 1,
      "byteOffset": 33792,
      "componentType": 5126,
      "count": 1326,
      "max": [
        0.26023074984550476,
        0.99749207496643066
      ],
      "min": [
        0.0013859272003173828,
        0.007695500273257494
      ],
      "type": "VEC2"
    },
    {
      "bufferView": 1,
      "byteOffset": 44400,
      "componentType": 5126,
      "count": 1326,
      "max": [
        0.26023074984550476,
        0.99749207496643066
      ],
      "min": [
        0.0013859272003173828,
        0.007695500273257494
      ],
      "type": "VEC2"
    },
    {
      "bufferView": 0,
      "byteOffset": 33960,
      "componentType": 5125,
      "count": 4500,
      "max": [
        1325
      ],
      "min": [
        0
      ],
      "type": "SCALAR"
    }
  ],
  "asset": {
    "extras": {
      "author": "MADE.COM (https://sketchfab.com/made-it)",
      "license": "CC-BY-NC-4.0 (http://creativecommons.org/licenses/by-nc/4.0/)",
      "source": "https://sketchfab.com/3d-models/rita-floor-lamp-brass-and-marble-a024483b3b00423cbf2d269f5120ccb2",
      "title": "Rita Floor Lamp, Brass and Marble"
    },
    "generator": "Sketchfab-4.46.0",
    "version": "2.0"
  },
  "bufferViews": [
    {
      "buffer": 0,
      "byteLength": 51960,
      "byteOffset": 0,
      "name": "floatBufferViews",
      "target": 34963
    },
    {
      "buffer": 0,
      "byteLength": 55008,
      "byteOffset": 51960,
      "byteStride": 8,
      "name": "floatBufferViews",
      "target": 34962
    },
    {
      "buffer": 0,
      "byteLength": 82560,
      "byteOffset": 106968,
      "byteStride": 12,
      "name": "floatBufferViews",
      "target": 34962
    },
    {
      "buffer": 0,
      "byteLength": 55040,
      "byteOffset": 189528,
      "byteStride": 16,
      "name": "floatBufferViews",
      "target": 34962
    }
  ],
  "buffers": [
    {
      "byteLength": 244568,
      "uri": "scene.bin"
    }
  ],
  "images": [
    {
      "uri": "textures/FLOOR_baseColor.png"
    },
    {
      "uri": "textures/MARBLE_baseColor.jpeg"
    }
  ],
  "materials": [
    {
      "alphaMode": "BLEND",
      "doubleSided": true,
      "emissiveFactor": [
        0,
        0,
        0
      ],
      "name": "FLOOR",
      "pbrMetallicRoughness": {
        "baseColorFactor": [
          0,
          0,
          0,
          1
        ],
        "baseColorTexture": {
          "index": 0,
          "texCoord": 0
        },
        "metallicFactor": 0,
        "roughnessFactor": 0.89297135959999996
      }
    },
    {
      "doubleSided": true,
      "emissiveFactor": [
        0,
        0,
        0
      ],
      "name": "MARBLE",
      "pbrMetallicRoughness": {
        "baseColorFactor": [
          1,
          1,
          1,
          1
        ],
        "baseColorTexture": {
          "index": 1,
          "texCoord": 0
        },
        "metallicFactor": 0,
        "roughnessFactor": 0.51391006100000003
      }
    },
    {
      "doubleSided": true,
      "emissiveFactor": [
        0,
        0,
        0
      ],
      "name": "BRASS",
      "pbrMetallicRoughness": {
        "baseColorFactor": [
          0.6435635529,
          0.44546705390000002,
          0.21640452709999999,
          1
        ],
        "metallicFactor": 1,
        "roughnessFactor": 0.2334222561
      }
    },
    {
      "doubleSided": true,
      "emissiveFactor": [
        1,
        1,
        0.92468425649071528
      ],
      "name": "LIGHT_BULB",
      "pbrMetallicRoughness": {
        "baseColorFactor": [
          0,
          0,
          0,
          1
        ],
        "metallicFactor": 0,
        "roughnessFactor": 0.89297135959999996
      }
    },
    {
      "doubleSided": true,
      "emissiveFactor": [
        0,
        0,
        0
      ],
      "name": "LAMP_SHADE",
      "pbrMetallicRoughness": {
        "baseColorFactor": [
          0.69940240549999999,
          0.69940240549999999,
          0.69940240549999999,
          1
        ],
        "metallicFactor": 0,
        "roughnessFactor": 0.89297135959999996
      }
    }
  ],
  "meshes": [
    {
      "name": "Plane001_FLOOR_0",
      "primitives": [
        {
          "attributes": {
            "NORMAL": 1,
            "POSITION": 0,
            "TANGENT": 2,
            "TEXCOORD_0": 3
          },
          "indices": 4,
          "material": 0,
          "mode": 4
        }
      ]
    },
    {
      "name": "Rita_Floor_Lamp_BlackMarble_and_Brass_MARBLE_0",
      "primitives": [
        {
          "attributes": {
            "NORMAL": 6,
            "POSITION": 5,
            "TANGENT": 7,
            "TEXCOORD_0": 8,
            "TEXCOORD_1": 9
          },
          "indices": 10,
          "material": 1,
          "mode": 4
        }
      ]
    },
    {
      "name": "Rita_Floor_Lamp_BlackMarble_and_Brass_BRASS_0",
      "primitives": [
        {
          "attributes": {
            "NORMAL": 12,
            "POSITION": 11,
            "TANGENT": 13,
            "TEXCOORD_0": 14,
            "TEXCOORD_1": 15
          },
          "indices": 16,
          "material": 2,
          "mode": 4
        }
      ]
    },
    {
      "name": "Rita_Floor_Lamp_BlackMarble_and_Brass_LIGHT_BULB_0",
      "primitives": [
        {
          "attributes": {
            "NORMAL": 18,
            "POSITION": 17,
            "TANGENT": 19,
            "TEXCOORD_0": 20,
            "TEXCOORD_1": 21
          },
          "indices": 22,
          "material": 3,
          "mode": 4
        }
      ]
    },
    {
      "name": "Rita_Floor_Lamp_BlackMarble_and_Brass_LAMP_SHADE_0",
      "primitives": [
        {
          "attributes": {
            "NORMAL": 24,
            "POSITION": 23,
            "TANGENT": 25,
            "TEXCOORD_0": 26,
            "TEXCOORD_1": 27
          },
          "indices": 28,
          "material": 4,
          "mode": 4
        }
      ]
    }
  ],
  "nodes": [
    {
      "children": [
        1
      ],
      "name": "RootNode (gltf orientation matrix)",
      "rotation": [
        -0.70710678118654746,
        -0,
        -0,
        0.70710678118654757
      ]
    },
    {
      "children": [
        2
      ],
      "name": "RootNode (model correction matrix)"
    },
    {
      "children": [
        3
      ],
      "matrix": [
        1,
        0,
        0,
        0,
        0,
        0,
        1,
        0,
        0,
        -1,
        0,
        0,
        0,
        0,
        0,
        1
      ],
      "name": "464c29be82de4e99b36e85e7b719759a.fbx"
    },
    {
      "children": [
        4,
        6
      ],
      "name": "RootNode"
    },
    {
      "children": [
        5
      ],
      "matrix": [
        1,
        0,
        0,
        0,
        0,
        2.2204460492503131e-16,
        -1,
        0,
        0,
        1,
        2.2204460492503131e-16,
        0,
        0,
        0,
        0,
        1
      ],
      "name": "Plane001"
    },
    {
      "mesh": 0,
      "name": "Plane001_FLOOR_0"
    },
    {
      "children": [
        7
      ],
      "matrix": [
        1,
        0,
        0,
        0,
        0,
        0.99999999999998668,
        1.6292068494294582e-07,
        0,
        0,
        -1.6292068494294582e-07,
        0.99999999999998668,
        0,
        0,
        0.18794700503349304,
        8.2154247849075546e-09,
        1
      ],
      "name": "Rita_Floor_Lamp_BlackMarble_and_Brass"
    },
    {
      "children": [
        8,
        9,
        10,
        11
      ],
      "matrix": [
        1,
        0,
        -0,
        0,
        0,
        1,
        0,
        0,
        0,
        0,
        1,
        0,
        3.4902400970458984,
        15.415866851806641,
        0.93395310640335083,
        1
      ],
      "name": ""
    },
    {
      "mesh": 1,
      "name": "Rita_Floor_Lamp_BlackMarble_and_Brass_MARBLE_0"
    },
    {
      "mesh": 2,
      "name": "Rita_Floor_Lamp_BlackMarble_and_Brass_BRASS_0"
    },
    {
      "mesh": 3,
      "name": "Rita_Floor_Lamp_BlackMarble_and_Brass_LIGHT_BULB_0"
    },
    {
      "mesh": 4,
      "name": "Rita_Floor_Lamp_BlackMarble_and_Brass_LAMP_SHADE_0"
    }
  ],
  "samplers": [
    {
      "magFilter": 9729,
      "minFilter": 9987,
      "wrapS": 10497,
      "wrapT": 10497
    }
  ],
  "scene": 0,
  "scenes": [
    {
      "name": "OSG_Scene",
      "nodes": [
        0
      ]
    }
  ],
  "textures": [
    {
      "sampler": 0,
      "source": 0
    },
    {
      "sampler": 0,
      "source": 1
    }
  ]
}

