{
  "accessors": [
    {
      "bufferView": 2,
      "componentType": 5126,
      "count": 759,
      "max": [
        22.527080535888672,
        22.540809631347656,
        151.98069763183594
      ],
      "min": [
        -22.527069091796875,
        -22.48590087890625,
        122.98069763183594
      ],
      "type": "VEC3"
    },
    {
      "bufferView": 2,
      "byteOffset": 9108,
      "componentType": 5126,
      "count": 759,
      "max": [
        0.99939090013504028,
        1,
        1
      ],
      "min": [
        -0.99939090013504028,
        -0.99756413698196411,
        -1
      ],
      "type": "VEC3"
    },
    {
      "bufferView": 3,
      "componentType": 5126,
      "count": 759,
      "max": [
        0.99993276596069336,
        0.9997285008430481,
        1,
        1
      ],
      "min": [
        -0.9983062744140625,
        -0.9997285008430481,
        -0.92131245136260986,
        1
      ],
      "type": "VEC4"
    },
    {
      "bufferView": 1,
      "componentType": 5126,
      "count": 759,
      "max": [
        0.22929120063781738,
        0.99949997663497925
      ],
      "min": [
        0.00050000002374872565,
        0.00050000601913779974
      ],
      "type": "VEC2"
    },
    {
      "bufferView": 1,
      "byteOffset": 6072,
      "componentType": 5126,
      "count": 759,
      "max": [
        16.096820831298828,
        3.4000000953674316
      ],
      "min": [
        -0.084826268255710602,
        2.0265599687263602e-07
      ],
      "type": "VEC2"
    },
    {
      "bufferView": 0,
      "componentType": 5125,
      "count": 4050,
      "max": [
        758
      ],
      "min": [
        0
      ],
      "type": "SCALAR"
    },
    {
      "bufferView": 2,
      "byteOffset": 18216,
      "componentType": 5126,
      "count": 92,
      "max": [
        22.212919235229492,
        22.226459503173828,
        151.57170104980469
      ],
      "min": [
        -22.212919235229492,
        -22.172319412231445,
        123.38970184326172
      ],
      "type": "VEC3"
    },
    {
      "bufferView": 2,
      "byteOffset": 19320,
      "componentType": 5126,
      "count": 92,
      "max": [
        0.99939090013504028,
        0.99756407737731934,
        4.7860902441243525e-07
      ],
      "min": [
        -0.99939090013504028,
        -1,
        -4.7006099634927523e-07
      ],
      "type": "VEC3"
    },
    {
      "bufferView": 3,
      "byteOffset": 12144,
      "componentType": 5126,
      "count": 92,
      "max": [
        3.7285082044036244e-07,
        6.8646221507151495e-07,
        -1,
        -1
      ],
      "min": [
        -1.3057602643584687e-07,
        2.4065064962996985e-07,
        -1,
        -1
      ],
      "type": "VEC4"
    },
    {
      "bufferView": 1,
      "byteOffset": 12144,
      "componentType": 5126,
      "count": 92,
      "max": [
        0.43587818741798401,
        0.97288352251052856
      ],
      "min": [
        0.23291850090026855,
        0.00050000601913779974
      ],
      "type": "VEC2"
    },
    {
      "bufferView": 1,
      "byteOffset": 12880,
      "componentType": 5126,
      "count": 92,
      "max": [
        15.745220184326172,
        3.3520491123199463
      ],
      "min": [
        -0.084783807396888733,
        0.04795088991522789
      ],
      "type": "VEC2"
    },
    {
      "bufferView": 0,
      "byteOffset": 16200,
      "componentType": 5125,
      "count": 270,
      "max": [
        91
      ],
      "min": [
        0
      ],
      "type": "SCALAR"
    },
    {
      "bufferView": 2,
      "byteOffset": 20424,
      "componentType": 5126,
      "count": 1387,
      "max": [
        25.130010604858398,
        28.86444091796875,
        130.66529846191406
      ],
      "min": [
        -25.082429885864258,
        -19.109930038452148,
        -0.0506439208984375
      ],
      "type": "VEC3"
    },
    {
      "bufferView": 2,
      "byteOffset": 37068,
      "componentType": 5126,
      "count": 1387,
      "max": [
        0.99978071451187134,
        0.9999464750289917,
        1
      ],
      "min": [
        -0.99957162141799927,
        -0.99999010562896729,
        -1
      ],
      "type": "VEC3"
    },
    {
      "bufferView": 3,
      "byteOffset": 13616,
      "componentType": 5126,
      "count": 1387,
      "max": [
        1,
        0.99999970197677612,
        0.99598431587219238,
        1
      ],
      "min": [
        -0.9999997615814209,
        -0.9999997615814209,
        -0.99589717388153076,
        -1
      ],
      "type": "VEC4"
    },
    {
      "bufferView": 1,
      "byteOffset": 13616,
      "componentType": 5126,
      "count": 1387,
      "max": [
        0.70124882459640503,
        0.99602252244949341
      ],
      "min": [
        0.24018150568008423,
        0.00050000002374872565
      ],
      "type": "VEC2"
    },
    {
      "bufferView": 1,
      "byteOffset": 24712,
      "componentType": 5126,
      "count": 1387,
      "max": [
        29.607259750366211,
        61.384830474853516
      ],
      "min": [
        -14.008649826049805,
        -62.976520538330078
      ],
      "type": "VEC2"
    },
    {
      "bufferView": 0,
      "byteOffset": 17280,
      "componentType": 5125,
      "count": 4278,
      "max": [
        1386
      ],
      "min": [
        0
      ],
      "type": "SCALAR"
    },
    {
      "bufferView": 2,
      "byteOffset": 53712,
      "componentType": 5126,
      "count": 385,
      "max": [
        2.3615410327911377,
        2.3952229022979736,
        135.12840270996094
      ],
      "min": [
        -2.315540075302124,
        -2.281857967376709,
        130.38690185546875
      ],
      "type": "VEC3"
    },
    {
      "bufferView": 2,
      "byteOffset": 58332,
      "componentType": 5126,
      "count": 385,
      "max": [
        0.99144500494003296,
        0.99144500494003296,
        1
      ],
      "min": [
        -0.99144488573074341,
        -0.99144500494003296,
        -0.66335302591323853
      ],
      "type": "VEC3"
    },
    {
      "bufferView": 3,
      "byteOffset": 35808,
      "componentType": 5126,
      "count": 385,
      "max": [
        0.99333405494689941,
        0.67724400758743286,
        0.99960213899612427,
        1
      ],
      "min": [
        -0.49999982118606567,
        -0.99144500494003296,
        -0.99962592124938965,
        -1
      ],
      "type": "VEC4"
    },
    {
      "bufferView": 1,
      "byteOffset": 35808,
      "componentType": 5126,
      "count": 385,
      "max": [
        0.62020367383956909,
        0.072075650095939636
      ],
      "min": [
        0.57428312301635742,
        0.025920769199728966
      ],
      "type": "VEC2"
    },
    {
      "bufferView": 1,
      "byteOffset": 38888,
      "componentType": 5126,
      "count": 385,
      "max": [
        0.95375537872314453,
        2.2781069278717041
      ],
      "min": [
        -3.7636840343475342,
        -2.4634170532226562
      ],
      "type": "VEC2"
    },
    {
      "bufferView": 0,
      "byteOffset": 34392,
      "componentType": 5125,
      "count": 2256,
      "max": [
        384
      ],
      "min": [
        0
      ],
      "type": "SCALAR"
    },
    {
      "bufferView": 2,
      "byteOffset": 62952,
      "componentType": 5126,
      "count": 4,
      "max": [
        167.02890014648438,
        167.02890014648438,
        0
      ],
      "min": [
        -167.02890014648438,
        -167.02890014648438,
        0
      ],
      "type": "VEC3"
    },
    {
      "bufferView": 2,
      "byteOffset": 63000,
      "componentType": 5126,
      "count": 4,
      "max": [
        0,
        0,
        1
      ],
      "min": [
        0,
        0,
        1
      ],
      "type": "VEC3"
    },
    {
      "bufferView": 3,
      "byteOffset": 41968,
      "componentType": 5126,
      "count": 4,
      "max": [
        1,
        2.3841872121010965e-07,
        0,
        1
      ],
      "min": [
        1,
        1.7881399116959074e-07,
        0,
        1
      ],
      "type": "VEC4"
    },
    {
      "bufferView": 1,
      "byteOffset": 41968,
      "componentType": 5126,
      "count": 4,
      "max": [
        1,
        1
      ],
      "min": [
        2.98022992950564e-08,
        2.98022992950564e-08
      ],
      "type": "VEC2"
    },
    {
      "bufferView": 0,
      "byteOffset": 43416,
      "componentType": 5125,
      "count": 6,
      "max": [
        3
      ],
      "min": [
        0
      ],
      "type": "SCALAR"
    }
  ],
  "asset": {
    "extras": {
      "author": "MADE.COM (https://sketchfab.com/made-it)",
      "license": "CC-BY-NC-4.0 (http://creativecommons.org/licenses/by-nc/4.0/)",
      "source": "https://sketchfab.com/3d-models/tris-floor-lamp-white-and-copper-c5e643221089487a81018ba8e1fe9798",
      "title": "Tris Floor Lamp, White and Copper"
    },
    "generator": "Sketchfab-5.11.0",
    "version": "2.0"
  },
  "bufferViews": [
    {
      "buffer": 0,
      "byteLength": 43440,
      "byteOffset": 0,
      "name": "floatBufferViews",
      "target": 34963
    },
    {
      "buffer": 0,
      "byteLength": 42000,
      "byteOffset": 43440,
      "byteStride": 8,
      "name": "floatBufferViews",
      "target": 34962
    },
    {
      "buffer": 0,
      "byteLength": 63048,
      "byteOffset": 85440,
      "byteStride": 12,
      "name": "floatBufferViews",
      "target": 34962
    },
    {
      "buffer": 0,
      "byteLength": 42032,
      "byteOffset": 148488,
      "byteStride": 16,
      "name": "floatBufferViews",
      "target": 34962
    }
  ],
  "buffers": [
    {
      "byteLength": 190520,
      "uri": "scene.bin"
    }
  ],
  "images": [
    {
      "uri": "textures/EnvironmentAmbientLight_emissive.jpeg"
    },
    {
      "uri": "textures/EnvironmentAmbientLight_baseColor.jpeg"
    },
    {
      "uri": "textures/LAMP_SHADE_emissive.jpeg"
    },
    {
      "uri": "textures/LAMP_SHADE_metallicRoughness.png"
    },
    {
      "uri": "textures/LAMP_SHADE_baseColor.jpeg"
    },
    {
      "uri": "textures/FLOOR_baseColor.png"
    },
    {
      "uri": "textures/MATT_GREY_metallicRoughness.png"
    },
    {
      "uri": "textures/MATT_GREY_baseColor.jpeg"
    }
  ],
  "materials": [
    {
      "alphaMode": "BLEND",
      "doubleSided": true,
      "emissiveFactor": [
        0,
        0,
        0
      ],
      "name": "FLOOR",
      "pbrMetallicRoughness": {
        "baseColorFactor": [
          0,
          0,
          0,
          1
        ],
        "baseColorTexture": {
          "index": 5,
          "texCoord": 0
        },
        "metallicFactor": 0,
        "roughnessFactor": 1
      }
    },
    {
      "doubleSided": true,
      "emissiveFactor": [
        0,
        0,
        0
      ],
      "emissiveTexture": {
        "index": 2,
        "texCoord": 0
      },
      "name": "LAMP_SHADE",
      "occlusionTexture": {
        "index": 3,
        "strength": 1,
        "texCoord": 0
      },
      "pbrMetallicRoughness": {
        "baseColorFactor": [
          1,
          1,
          1,
          1
        ],
        "baseColorTexture": {
          "index": 4,
          "texCoord": 0
        },
        "metallicFactor": 0,
        "roughnessFactor": 0.93001767700000004
      }
    },
    {
      "doubleSided": true,
      "emissiveFactor": [
        0.078125,
        0.078125,
        0.078125
      ],
      "emissiveTexture": {
        "index": 0,
        "texCoord": 0
      },
      "name": "EnvironmentAmbientLight",
      "pbrMetallicRoughness": {
        "baseColorFactor": [
          1,
          1,
          1,
          1
        ],
        "baseColorTexture": {
          "index": 1,
          "texCoord": 0
        },
        "metallicFactor": 0.88586128050000001,
        "roughnessFactor": 0.245617378
      }
    },
    {
      "doubleSided": true,
      "emissiveFactor": [
        0,
        0,
        0
      ],
      "name": "MATT_GREY",
      "occlusionTexture": {
        "index": 6,
        "strength": 1,
        "texCoord": 0
      },
      "pbrMetallicRoughness": {
        "baseColorFactor": [
          1,
          1,
          1,
          1
        ],
        "baseColorTexture": {
          "index": 7,
          "texCoord": 0
        },
        "metallicFactor": 0.0504954268,
        "roughnessFactor": 0.1884139464
      }
    },
    {
      "doubleSided": true,
      "emissiveFactor": [
        0.40000000000000002,
        0.40000000000000002,
        0.40000000000000002
      ],
      "name": "LIGHT_BULB",
      "pbrMetallicRoughness": {
        "baseColorFactor": [
          0.88627500000000003,
          0.88627500000000003,
          0.88627500000000003,
          1
        ],
        "metallicFactor": 0,
        "roughnessFactor": 1
      }
    }
  ],
  "meshes": [
    {
      "name": "LAMP_SHADE",
      "primitives": [
        {
          "attributes": {
            "NORMAL": 1,
            "POSITION": 0,
            "TANGENT": 2,
            "TEXCOORD_0": 3,
            "TEXCOORD_1": 4
          },
          "indices": 5,
          "material": 1,
          "mode": 4
        }
      ]
    },
    {
      "name": "COPPER",
      "primitives": [
        {
          "attributes": {
            "NORMAL": 7,
            "POSITION": 6,
            "TANGENT": 8,
            "TEXCOORD_0": 9,
            "TEXCOORD_1": 10
          },
          "indices": 11,
          "material": 2,
          "mode": 4
        }
      ]
    },
    {
      "name": "MATT_GREY",
      "primitives": [
        {
          "attributes": {
            "NORMAL": 13,
            "POSITION": 12,
            "TANGENT": 14,
            "TEXCOORD_0": 15,
            "TEXCOORD_1": 16
          },
          "indices": 17,
          "material": 3,
          "mode": 4
        }
      ]
    },
    {
      "name": "LIGHT_BULB",
      "primitives": [
        {
          "attributes": {
            "NORMAL": 19,
            "POSITION": 18,
            "TANGENT": 20,
            "TEXCOORD_0": 21,
            "TEXCOORD_1": 22
          },
          "indices": 23,
          "material": 4,
          "mode": 4
        }
      ]
    },
    {
      "name": "FLOOR",
      "primitives": [
        {
          "attributes": {
            "NORMAL": 25,
            "POSITION": 24,
            "TANGENT": 26,
            "TEXCOORD_0": 27
          },
          "indices": 28,
          "material": 0,
          "mode": 4
        }
      ]
    }
  ],
  "nodes": [
    {
      "children": [
        1
      ],
      "name": "RootNode (gltf orientation matrix)",
      "rotation": [
        -0.70710678118654746,
        -0,
        -0,
        0.70710678118654757
      ]
    },
    {
      "children": [
        2
      ],
      "name": "RootNode (model correction matrix)"
    },
    {
      "children": [
        3,
        8,
        10
      ],
      "name": "Collada visual scene group"
    },
    {
      "children": [
        4,
        5,
        6,
        7
      ],
      "matrix": [
        1,
        0,
        0,
        0,
        0,
        1,
        0,
        0,
        0,
        0,
        1,
        0,
        -0.035249710083007812,
        -4.1336900835631241e-07,
        0.18377770483493805,
        1
      ],
      "name": "Tris_Floor_Lamp_MattGrey_and_Copper"
    },
    {
      "mesh": 0,
      "name": "LAMP_SHADE"
    },
    {
      "mesh": 1,
      "name": "COPPER"
    },
    {
      "mesh": 2,
      "name": "MATT_GREY"
    },
    {
      "mesh": 3,
      "name": "LIGHT_BULB"
    },
    {
      "children": [
        9
      ],
      "matrix": [
        1,
        0,
        0,
        0,
        0,
        1,
        0,
        0,
        0,
        0,
        1,
        0,
        4.8819789886474609,
        0,
        0,
        1
      ],
      "name": "Plane001"
    },
    {
      "mesh": 4,
      "name": "FLOOR"
    },
    {
      "children": [
        11
      ],
      "name": "EnvironmentAmbientLight"
    },
    {
      "name": "EnvironmentAmbientLight"
    }
  ],
  "samplers": [
    {
      "magFilter": 9729,
      "minFilter": 9987,
      "wrapS": 10497,
      "wrapT": 10497
    }
  ],
  "scene": 0,
  "scenes": [
    {
      "name": "OSG_Scene",
      "nodes": [
        0
      ]
    }
  ],
  "textures": [
    {
      "sampler": 0,
      "source": 0
    },
    {
      "sampler": 0,
      "source": 1
    },
    {
      "sampler": 0,
      "source": 2
    },
    {
      "sampler": 0,
      "source": 3
    },
    {
      "sampler": 0,
      "source": 4
    },
    {
      "sampler": 0,
      "source": 5
    },
    {
      "sampler": 0,
      "source": 6
    },
    {
      "sampler": 0,
      "source": 7
    }
  ]
}

