{
  "accessors": [
    {
      "bufferView": 2,
      "componentType": 5126,
      "count": 63673,
      "max": [
        94.14434814453125,
        104.23442077636719,
        137.65159606933594
      ],
      "min": [
        -94.153884887695312,
        -110.18067932128906,
        -25
      ],
      "type": "VEC3"
    },
    {
      "bufferView": 2,
      "byteOffset": 764076,
      "componentType": 5126,
      "count": 63673,
      "max": [
        1,
        1,
        1
      ],
      "min": [
        -1,
        -1,
        -1
      ],
      "type": "VEC3"
    },
    {
      "bufferView": 1,
      "componentType": 5126,
      "count": 63673,
      "max": [
        2.8248639106750488,
        1.534074068069458
      ],
      "min": [
        -1.8256735801696777,
        -1.4499999284744263
      ],
      "type": "VEC2"
    },
    {
      "bufferView": 1,
      "byteOffset": 509384,
      "componentType": 5126,
      "count": 63673,
      "max": [
        0.35092902183532715,
        1.432746410369873
      ],
      "min": [
        -0.39861750602722168,
        -0.48595732450485229
      ],
      "type": "VEC2"
    },
    {
      "bufferView": 0,
      "componentType": 5125,
      "count": 198612,
      "max": [
        63672
      ],
      "min": [
        0
      ],
      "type": "SCALAR"
    },
    {
      "bufferView": 2,
      "byteOffset": 1528152,
      "componentType": 5126,
      "count": 118,
      "max": [
        89.461326599121094,
        100.01936340332031,
        31.553985595703125
      ],
      "min": [
        -89.461143493652344,
        -100.01954650878906,
        11.231800079345703
      ],
      "type": "VEC3"
    },
    {
      "bufferView": 2,
      "byteOffset": 1529568,
      "componentType": 5126,
      "count": 118,
      "max": [
        0.98183393478393555,
        0.98183411359786987,
        0.98245060443878174
      ],
      "min": [
        -0.98183393478393555,
        -0.98183411359786987,
        -0.97592329978942871
      ],
      "type": "VEC3"
    },
    {
      "bufferView": 1,
      "byteOffset": 1018768,
      "componentType": 5126,
      "count": 118,
      "max": [
        2.7816982269287109,
        1.4947783946990967
      ],
      "min": [
        -1.7816982269287109,
        -1.2039734125137329
      ],
      "type": "VEC2"
    },
    {
      "bufferView": 1,
      "byteOffset": 1019712,
      "componentType": 5126,
      "count": 118,
      "max": [
        -0.19405525922775269,
        1.395027756690979
      ],
      "min": [
        -0.28770595788955688,
        -0.39502996206283569
      ],
      "type": "VEC2"
    },
    {
      "bufferView": 0,
      "byteOffset": 794448,
      "componentType": 5125,
      "count": 324,
      "max": [
        117
      ],
      "min": [
        0
      ],
      "type": "SCALAR"
    }
  ],
  "asset": {
    "extras": {
      "author": "cebraVFX (https://sketchfab.com/intervirtual)",
      "license": "CC-BY-4.0 (http://creativecommons.org/licenses/by/4.0/)",
      "source": "https://sketchfab.com/3d-models/princess-bed-3ed408980a9b4f9396a7f7c48ec50aa4",
      "title": "Princess bed"
    },
    "generator": "Sketchfab-7.44.0",
    "version": "2.0"
  },
  "bufferViews": [
    {
      "buffer": 0,
      "byteLength": 795744,
      "byteOffset": 0,
      "name": "floatBufferViews",
      "target": 34963
    },
    {
      "buffer": 0,
      "byteLength": 1020656,
      "byteOffset": 795744,
      "byteStride": 8,
      "name": "floatBufferViews",
      "target": 34962
    },
    {
      "buffer": 0,
      "byteLength": 1530984,
      "byteOffset": 1816400,
      "byteStride": 12,
      "name": "floatBufferViews",
      "target": 34962
    }
  ],
  "buffers": [
    {
      "byteLength": 3347384,
      "uri": "scene.bin"
    }
  ],
  "materials": [
    {
      "doubleSided": true,
      "emissiveFactor": [
        0,
        0,
        0
      ],
      "name": "MetallWeiss",
      "pbrMetallicRoughness": {
        "baseColorFactor": [
          0.95294100000000004,
          0.95294100000000004,
          0.95294100000000004,
          1
        ],
        "metallicFactor": 0,
        "roughnessFactor": 0.15415396341463414
      }
    },
    {
      "doubleSided": true,
      "emissiveFactor": [
        0,
        0,
        0
      ],
      "name": "Matratze",
      "pbrMetallicRoughness": {
        "baseColorFactor": [
          0.89282932489176869,
          0.51486845181922902,
          0.56708013750485742,
          1
        ],
        "metallicFactor": 0,
        "roughnessFactor": 0.48951981707317072
      }
    }
  ],
  "meshes": [
    {
      "name": "PrincessBed_001_MetallWeiss_0",
      "primitives": [
        {
          "attributes": {
            "NORMAL": 1,
            "POSITION": 0,
            "TEXCOORD_0": 2,
            "TEXCOORD_1": 3
          },
          "indices": 4,
          "material": 0,
          "mode": 4
        }
      ]
    },
    {
      "name": "PrincessBed_001_Matratze_0",
      "primitives": [
        {
          "attributes": {
            "NORMAL": 6,
            "POSITION": 5,
            "TEXCOORD_0": 7,
            "TEXCOORD_1": 8
          },
          "indices": 9,
          "material": 1,
          "mode": 4
        }
      ]
    }
  ],
  "nodes": [
    {
      "children": [
        1
      ],
      "name": "RootNode (gltf orientation matrix)",
      "rotation": [
        -0.70710678118654746,
        -0,
        -0,
        0.70710678118654757
      ]
    },
    {
      "children": [
        2
      ],
      "matrix": [
        1,
        2.832769343193999e-16,
        2.832769343193999e-16,
        0,
        2.832769343193999e-16,
        -1,
        1.6081226229577292e-16,
        0,
        2.832769343193999e-16,
        -1.6081226229577292e-16,
        -1,
        0,
        3.640664159032525e-14,
        5.9468765258789062,
        -162.65145874023438,
        1
      ],
      "name": "RootNode (model correction matrix)"
    },
    {
      "children": [
        3
      ],
      "matrix": [
        1,
        0,
        0,
        0,
        0,
        -1,
        0,
        0,
        0,
        0,
        -1,
        0,
        0,
        0,
        0,
        1
      ],
      "name": "0dd5392f313c481d998e1cb74f289e45.fbx"
    },
    {
      "children": [
        4
      ],
      "name": "RootNode"
    },
    {
      "children": [
        5
      ],
      "name": "PrincessBed_001"
    },
    {
      "children": [
        6,
        7
      ],
      "matrix": [
        1,
        0,
        -0,
        0,
        0,
        1,
        0,
        0,
        0,
        0,
        1,
        0,
        0,
        0,
        25,
        1
      ],
      "name": ""
    },
    {
      "mesh": 0,
      "name": "PrincessBed_001_MetallWeiss_0"
    },
    {
      "mesh": 1,
      "name": "PrincessBed_001_Matratze_0"
    }
  ],
  "scene": 0,
  "scenes": [
    {
      "name": "OSG_Scene",
      "nodes": [
        0
      ]
    }
  ]
}

