{
  "accessors": [
    {
      "bufferView": 2,
      "componentType": 5126,
      "count": 12696,
      "max": [
        41.820438385009766,
        39.986381530761719,
        69.763023376464844
      ],
      "min": [
        -41.820438385009766,
        -39.216949462890625,
        12.145330429077148
      ],
      "type": "VEC3"
    },
    {
      "bufferView": 2,
      "byteOffset": 152352,
      "componentType": 5126,
      "count": 12696,
      "max": [
        0.99997442960739136,
        0.9999537467956543,
        1
      ],
      "min": [
        -0.9999350905418396,
        -0.99999994039535522,
        -1
      ],
      "type": "VEC3"
    },
    {
      "bufferView": 3,
      "componentType": 5126,
      "count": 12696,
      "max": [
        1,
        0.99990451335906982,
        1,
        1
      ],
      "min": [
        -1,
        -0.9999995231628418,
        -0.99999409914016724,
        -1
      ],
      "type": "VEC4"
    },
    {
      "bufferView": 1,
      "componentType": 5126,
      "count": 12696,
      "max": [
        0.99699997901916504,
        0.99006319046020508
      ],
      "min": [
        0.0030000000260770321,
        0.0030000000260770321
      ],
      "type": "VEC2"
    },
    {
      "bufferView": 1,
      "byteOffset": 101568,
      "componentType": 5126,
      "count": 12696,
      "max": [
        5.370635986328125,
        5.8337249755859375
      ],
      "min": [
        -0.015794990584254265,
        -0.12235470116138458
      ],
      "type": "VEC2"
    },
    {
      "bufferView": 0,
      "componentType": 5125,
      "count": 68004,
      "max": [
        12695
      ],
      "min": [
        0
      ],
      "type": "SCALAR"
    },
    {
      "bufferView": 2,
      "byteOffset": 304704,
      "componentType": 5126,
      "count": 552,
      "max": [
        30.804939270019531,
        20.457929611206055,
        13.569609642028809
      ],
      "min": [
        -30.804939270019531,
        -31.315439224243164,
        -7.5292577743530273
      ],
      "type": "VEC3"
    },
    {
      "bufferView": 2,
      "byteOffset": 311328,
      "componentType": 5126,
      "count": 552,
      "max": [
        0.99475342035293579,
        0.98966079950332642,
        0.14200538396835327
      ],
      "min": [
        -0.99475342035293579,
        -0.98966121673583984,
        -1
      ],
      "type": "VEC3"
    },
    {
      "bufferView": 3,
      "byteOffset": 203136,
      "componentType": 5126,
      "count": 552,
      "max": [
        0.99822902679443359,
        0.9998059868812561,
        0.9898722767829895,
        1
      ],
      "min": [
        -0.99931466579437256,
        -0.9999879002571106,
        -0.98987221717834473,
        -1
      ],
      "type": "VEC4"
    },
    {
      "bufferView": 1,
      "byteOffset": 203136,
      "componentType": 5126,
      "count": 552,
      "max": [
        0.61949211359024048,
        0.87918221950531006
      ],
      "min": [
        0.10790649801492691,
        0.077308788895606995
      ],
      "type": "VEC2"
    },
    {
      "bufferView": 1,
      "byteOffset": 207552,
      "componentType": 5126,
      "count": 552,
      "max": [
        0.95766812562942505,
        0.62644970417022705
      ],
      "min": [
        0.16153700649738312,
        0.37352308630943298
      ],
      "type": "VEC2"
    },
    {
      "bufferView": 0,
      "byteOffset": 272016,
      "componentType": 5125,
      "count": 1848,
      "max": [
        551
      ],
      "min": [
        0
      ],
      "type": "SCALAR"
    },
    {
      "bufferView": 2,
      "byteOffset": 317952,
      "componentType": 5126,
      "count": 292,
      "max": [
        29.972820281982422,
        19.666070938110352,
        -7.4911231994628906
      ],
      "min": [
        -29.972820281982422,
        -30.523569107055664,
        -8.1540288925170898
      ],
      "type": "VEC3"
    },
    {
      "bufferView": 2,
      "byteOffset": 321456,
      "componentType": 5126,
      "count": 292,
      "max": [
        1,
        0.9898216724395752,
        0
      ],
      "min": [
        -1,
        -0.98982179164886475,
        -1
      ],
      "type": "VEC3"
    },
    {
      "bufferView": 3,
      "byteOffset": 211968,
      "componentType": 5126,
      "count": 292,
      "max": [
        0,
        0,
        0,
        1
      ],
      "min": [
        0,
        0,
        0,
        1
      ],
      "type": "VEC4"
    },
    {
      "bufferView": 1,
      "byteOffset": 211968,
      "componentType": 5126,
      "count": 292,
      "max": [
        0.029326630756258965,
        0.11839679628610611
      ],
      "min": [
        0.020584419369697571,
        0.024855529889464378
      ],
      "type": "VEC2"
    },
    {
      "bufferView": 1,
      "byteOffset": 214304,
      "componentType": 5126,
      "count": 292,
      "max": [
        1.0227270126342773,
        0
      ],
      "min": [
        0.022727299481630325,
        0
      ],
      "type": "VEC2"
    },
    {
      "bufferView": 0,
      "byteOffset": 279408,
      "componentType": 5125,
      "count": 1452,
      "max": [
        291
      ],
      "min": [
        0
      ],
      "type": "SCALAR"
    },
    {
      "bufferView": 2,
      "byteOffset": 324960,
      "componentType": 5126,
      "count": 4,
      "max": [
        167.02890014648438,
        167.02890014648438,
        0
      ],
      "min": [
        -167.02890014648438,
        -167.02890014648438,
        0
      ],
      "type": "VEC3"
    },
    {
      "bufferView": 2,
      "byteOffset": 325008,
      "componentType": 5126,
      "count": 4,
      "max": [
        0,
        0,
        1
      ],
      "min": [
        0,
        0,
        1
      ],
      "type": "VEC3"
    },
    {
      "bufferView": 3,
      "byteOffset": 216640,
      "componentType": 5126,
      "count": 4,
      "max": [
        1,
        2.3841872121010965e-07,
        0,
        1
      ],
      "min": [
        1,
        1.7881399116959074e-07,
        0,
        1
      ],
      "type": "VEC4"
    },
    {
      "bufferView": 1,
      "byteOffset": 216640,
      "componentType": 5126,
      "count": 4,
      "max": [
        1,
        1
      ],
      "min": [
        2.98022992950564e-08,
        2.98022992950564e-08
      ],
      "type": "VEC2"
    },
    {
      "bufferView": 0,
      "byteOffset": 285216,
      "componentType": 5125,
      "count": 6,
      "max": [
        3
      ],
      "min": [
        0
      ],
      "type": "SCALAR"
    }
  ],
  "asset": {
    "extras": {
      "author": "MADE.COM (https://sketchfab.com/made-it)",
      "license": "CC-BY-NC-4.0 (http://creativecommons.org/licenses/by-nc/4.0/)",
      "source": "https://sketchfab.com/3d-models/gertie-accent-chair-pink-velvet-8eb7c4d2db2042df97d35a2dcc3eba6e",
      "title": "Gertie Accent Chair, Pink Velvet"
    },
    "generator": "Sketchfab-5.11.0",
    "version": "2.0"
  },
  "bufferViews": [
    {
      "buffer": 0,
      "byteLength": 285240,
      "byteOffset": 0,
      "name": "floatBufferViews",
      "target": 34963
    },
    {
      "buffer": 0,
      "byteLength": 216672,
      "byteOffset": 285240,
      "byteStride": 8,
      "name": "floatBufferViews",
      "target": 34962
    },
    {
      "buffer": 0,
      "byteLength": 325056,
      "byteOffset": 501912,
      "byteStride": 12,
      "name": "floatBufferViews",
      "target": 34962
    },
    {
      "buffer": 0,
      "byteLength": 216704,
      "byteOffset": 826968,
      "byteStride": 16,
      "name": "floatBufferViews",
      "target": 34962
    }
  ],
  "buffers": [
    {
      "byteLength": 1043672,
      "uri": "scene.bin"
    }
  ],
  "images": [
    {
      "uri": "textures/RUBBER_baseColor.jpeg"
    },
    {
      "uri": "textures/FLOOR_baseColor.png"
    },
    {
      "uri": "textures/VELVET_baseColor.jpeg"
    },
    {
      "uri": "textures/EnvironmentAmbientLight_baseColor.jpeg"
    }
  ],
  "materials": [
    {
      "alphaMode": "BLEND",
      "doubleSided": true,
      "emissiveFactor": [
        0,
        0,
        0
      ],
      "name": "FLOOR",
      "pbrMetallicRoughness": {
        "baseColorFactor": [
          0.026105182899999999,
          0.026105182899999999,
          0.026105182899999999,
          1
        ],
        "baseColorTexture": {
          "index": 1,
          "texCoord": 0
        },
        "metallicFactor": 0,
        "roughnessFactor": 1
      }
    },
    {
      "doubleSided": true,
      "emissiveFactor": [
        0,
        0,
        0
      ],
      "name": "VELVET",
      "pbrMetallicRoughness": {
        "baseColorFactor": [
          1,
          1,
          1,
          1
        ],
        "baseColorTexture": {
          "index": 2,
          "texCoord": 0
        },
        "metallicFactor": 1,
        "roughnessFactor": 0.89195884150000004
      }
    },
    {
      "doubleSided": true,
      "emissiveFactor": [
        0,
        0,
        0
      ],
      "name": "EnvironmentAmbientLight",
      "pbrMetallicRoughness": {
        "baseColorFactor": [
          1,
          1,
          1,
          1
        ],
        "baseColorTexture": {
          "index": 3,
          "texCoord": 0
        },
        "metallicFactor": 0,
        "roughnessFactor": 1
      }
    },
    {
      "doubleSided": true,
      "emissiveFactor": [
        0,
        0,
        0
      ],
      "name": "RUBBER",
      "pbrMetallicRoughness": {
        "baseColorFactor": [
          1,
          1,
          1,
          1
        ],
        "baseColorTexture": {
          "index": 0,
          "texCoord": 0
        },
        "metallicFactor": 0,
        "roughnessFactor": 0.74160373060000007
      }
    }
  ],
  "meshes": [
    {
      "name": "VELVET",
      "primitives": [
        {
          "attributes": {
            "NORMAL": 1,
            "POSITION": 0,
            "TANGENT": 2,
            "TEXCOORD_0": 3,
            "TEXCOORD_1": 4
          },
          "indices": 5,
          "material": 1,
          "mode": 4
        }
      ]
    },
    {
      "name": "WOOD",
      "primitives": [
        {
          "attributes": {
            "NORMAL": 7,
            "POSITION": 6,
            "TANGENT": 8,
            "TEXCOORD_0": 9,
            "TEXCOORD_1": 10
          },
          "indices": 11,
          "material": 2,
          "mode": 4
        }
      ]
    },
    {
      "name": "RUBBER",
      "primitives": [
        {
          "attributes": {
            "NORMAL": 13,
            "POSITION": 12,
            "TANGENT": 14,
            "TEXCOORD_0": 15,
            "TEXCOORD_1": 16
          },
          "indices": 17,
          "material": 3,
          "mode": 4
        }
      ]
    },
    {
      "name": "FLOOR",
      "primitives": [
        {
          "attributes": {
            "NORMAL": 19,
            "POSITION": 18,
            "TANGENT": 20,
            "TEXCOORD_0": 21
          },
          "indices": 22,
          "material": 0,
          "mode": 4
        }
      ]
    }
  ],
  "nodes": [
    {
      "children": [
        1
      ],
      "name": "RootNode (gltf orientation matrix)",
      "rotation": [
        -0.70710678118654746,
        -0,
        -0,
        0.70710678118654757
      ]
    },
    {
      "children": [
        2
      ],
      "name": "RootNode (model correction matrix)"
    },
    {
      "children": [
        3,
        7,
        9
      ],
      "name": "Collada visual scene group"
    },
    {
      "children": [
        4,
        5,
        6
      ],
      "matrix": [
        1,
        0,
        0,
        0,
        0,
        1,
        0,
        0,
        0,
        0,
        1,
        0,
        0,
        0,
        8.1574411392211914,
        1
      ],
      "name": "Gertie_Accent_Chair_Steel_Blue_Velvet"
    },
    {
      "mesh": 0,
      "name": "VELVET"
    },
    {
      "mesh": 1,
      "name": "WOOD"
    },
    {
      "mesh": 2,
      "name": "RUBBER"
    },
    {
      "children": [
        8
      ],
      "name": "Plane001"
    },
    {
      "mesh": 3,
      "name": "FLOOR"
    },
    {
      "children": [
        10
      ],
      "name": "EnvironmentAmbientLight"
    },
    {
      "name": "EnvironmentAmbientLight"
    }
  ],
  "samplers": [
    {
      "magFilter": 9729,
      "minFilter": 9987,
      "wrapS": 10497,
      "wrapT": 10497
    }
  ],
  "scene": 0,
  "scenes": [
    {
      "name": "OSG_Scene",
      "nodes": [
        0
      ]
    }
  ],
  "textures": [
    {
      "sampler": 0,
      "source": 0
    },
    {
      "sampler": 0,
      "source": 1
    },
    {
      "sampler": 0,
      "source": 2
    },
    {
      "sampler": 0,
      "source": 3
    }
  ]
}

